 Qayamat Se Qayamat Tak (1988)-Hindi Movie-DVDrip-E.Subs-MJY


Directed by: Mansoor Khan
Dialogue,Screenplay,Story: Nasir Hussain
Cast: Aamir Khan,Juhi Chawla,Goga Kapoor,Dalip Tahil,Ravindra Kapoor,Asha Sharma,Alok Nath,Rajendranath Zutshi,Shehnaz Kudia,Charushila,Beena Banerjee,Reema Lagoo,Nandita Thakur,Ahmed Khan,Arjun,Ajit Vachani,Yunus Parvez,Viju Khote,Babbanlal Yadav,Arun Mathur,Seema Vaz,Mukesh,Shehzad Khan,Makrand Deshpande,Yatin Karyekar,Shiva Rindani,Brij Gopal,Usha,Afzal,Faisal Khan,Noora,Yusuf	 		 
Produced by :Nasir Hussain	 
Music by :Anand Chitragupth,Milind Chitragupth		 
Cinematography by :Kiran Deohans	 	
Film Editing by :Zafar Sultan			 
Art Direction by:Shib Shankar	 		
Stunts : S. Ahmed,A.K. Gupta,Jabbar
Playback singers : Anil Mohile,Alka Yagnik




General

Complete name :Qayamat Se Qayamat Tak (1988)-Hindi Movie-DVDrip-E.Subs-Team MJY.mkv
Format : Matroska
Format version : Version 2
File size : 698 MiB
Duration : 2h 38mn
Overall bit rate : 616 Kbps
Encoded date : UTC 2011-01-23 20:19:18
Writing application : mkvmerge v4.0.0 ('The Stars were mine') built on Jun  6 2010 16:18:42
Writing library : libebml v1.0.0 + libmatroska v1.0.0

Video

ID : 1
Format : AVC
Format/Info : Advanced Video Codec
Format profile : High@L2.1
Format settings, CABAC : Yes
Format settings, ReFrames : 4 frames
Codec ID : V_MPEG4/ISO/AVC
Duration : 2h 38mn
Bit rate : 518 Kbps
Width : 688 pixels
Height : 272 pixels
Display aspect ratio : 2.529
Frame rate : 23.976 fps
Color space : YUV
Chroma subsampling : 4:2:0
Bit depth : 8 bits
Scan type : Progressive
Bits/(Pixel*Frame) : 0.115
Stream size : 576 MiB (82%)
Writing library : x264 core 98 r1649 c54c47d
Encoding settings : cabac=1 / ref=3 / deblock=1:0:0 / analyse=0x3:0x113 / me=hex / subme=7 / psy=1 / psy_rd=1.00:0.00 / mixed_ref=1 / me_range=16 / chroma_me=1 / trellis=1 / 8x8dct=1 / cqm=0 / deadzone=21,11 / fast_pskip=1 / chroma_qp_offset=-2 / threads=6 / sliced_threads=0 / nr=0 / decimate=1 / interlaced=0 / constrained_intra=0 / bframes=3 / b_pyramid=2 / b_adapt=1 / b_bias=0 / direct=1 / weightb=1 / weightp=2 / keyint=250 / keyint_min=25 / scenecut=40 / intra_refresh=0 / rc_lookahead=40 / rc=2pass / mbtree=1 / bitrate=518 / ratetol=1.0 / qcomp=0.60 / qpmin=10 / qpmax=51 / qpstep=4 / cplxblur=20.0 / qblur=0.5 / ip_ratio=1.40 / aq=1:1.00
Language                                 : English

Audio

ID : 2
Format : AC-3
Format/Info : Audio Coding 3
Mode extension : CM (complete main)
Codec ID : A_AC3
Duration : 2h 38mn
Bit rate mode : Constant
Bit rate : 96.0 Kbps
Channel(s) : 2 channels
Channel positions : Front: L R
Sampling rate : 48.0 KHz
Bit depth : 16 bits
Compression mode : Lossy
Delay relative to video : 10s 443ms
Stream size : 109 MiB (16%)
Language : Hindi

Text

ID : 3
Format : UTF-8
Codec ID : S_TEXT/UTF8
Codec ID/Info : UTF-8 Plain Text
Language : English



screens:
 
http://i.imgur.com/FWAU1.jpg
 
http://i.imgur.com/LRPIr.jpg
 
http://i.imgur.com/XdRCq.jpg
 
http://i.imgur.com/EsRa3.jpg
 
http://i.imgur.com/ERveN.jpg


ENJOY!


